<svg viewBox="0 0 64 64" xmlns="http://www.w3.org/2000/svg" aria-hidden="true">
  <path fill="#0e7490" d="M32 4C34.8 17.5 44.5 27.2 58 30 44.5 32.8 34.8 42.5 32 56 29.2 42.5 19.5 32.8 6 30 19.5 27.2 29.2 17.5 32 4Z"/>
  <path fill="#00c2f7" d="M32 12C34.2 22.8 42 30.6 52.8 32.8 42 35 34.2 42.8 32 53.6 29.8 42.8 22 35 11.2 32.8 22 30.6 29.8 22.8 32 12Z"/>
  <path fill="#0284c7" d="M32 24C33.2 30.2 37.8 34.8 44 36 37.8 37.2 33.2 41.8 32 48 30.8 41.8 26.2 37.2 20 36 26.2 34.8 30.8 30.2 32 24Z"/>
</svg>