<svg xmlns="http://www.w3.org/2000/svg" viewBox="0 0 560 300" role="img" aria-label="按场景选模">
  <rect width="560" height="300" rx="14" fill="#f0f9ff"/>
  <!-- cell backgrounds -->
  <rect x="14" y="14" width="258" height="128" rx="14" fill="#fff" stroke="#bae6fd" stroke-width="2"/>
  <rect x="288" y="14" width="258" height="128" rx="14" fill="#fff" stroke="#bae6fd" stroke-width="2"/>
  <rect x="14" y="158" width="258" height="128" rx="14" fill="#fff" stroke="#bae6fd" stroke-width="2"/>
  <rect x="288" y="158" width="258" height="128" rx="14" fill="#fff" stroke="#bae6fd" stroke-width="2"/>

  <!-- accent bars -->
  <rect x="14" y="14" width="258" height="6" rx="3" fill="#00c2f7"/>
  <rect x="288" y="14" width="258" height="6" rx="3" fill="#7c3aed"/>
  <rect x="14" y="158" width="258" height="6" rx="3" fill="#0284c7"/>
  <rect x="288" y="158" width="258" height="6" rx="3" fill="#6366f1"/>

  <!-- 1 综合旗舰 -->
  <circle cx="72" cy="78" r="28" fill="#e0f2fe"/>
  <path d="M72 60l5.2 15.8H94l-13.4 9.8 5.2 15.8L72 91.6 58.2 101.4l5.2-15.8L50 75.8h16.8z" fill="#0284c7"/>
  <text x="118" y="72" font-family="PingFang SC,Noto Sans SC,Microsoft YaHei,sans-serif" font-size="28" font-weight="800" fill="#0f172a">综合旗舰</text>
  <text x="118" y="104" font-family="PingFang SC,Noto Sans SC,Microsoft YaHei,sans-serif" font-size="16" font-weight="600" fill="#64748b">通用 · 均衡</text>

  <!-- 2 人设创意 -->
  <circle cx="346" cy="78" r="28" fill="#ede9fe"/>
  <path d="M334 88c0-12 8-20 12-20s12 8 12 20v4h-24v-4z" fill="none" stroke="#7c3aed" stroke-width="3.5" stroke-linecap="round"/>
  <path d="M338 70c4-8 12-10 16-2" fill="none" stroke="#7c3aed" stroke-width="3" stroke-linecap="round"/>
  <circle cx="340" cy="66" r="3" fill="#7c3aed"/>
  <circle cx="352" cy="64" r="3" fill="#7c3aed"/>
  <text x="392" y="72" font-family="PingFang SC,Noto Sans SC,Microsoft YaHei,sans-serif" font-size="28" font-weight="800" fill="#0f172a">人设创意</text>
  <text x="392" y="104" font-family="PingFang SC,Noto Sans SC,Microsoft YaHei,sans-serif" font-size="16" font-weight="600" fill="#64748b">写作 · 角色</text>

  <!-- 3 编程代码 -->
  <circle cx="72" cy="222" r="28" fill="#e0f2fe"/>
  <path d="M58 222l10-14 4 3-8 11 8 11-4 3z" fill="#0284c7"/>
  <path d="M86 222l-10-14-4 3 8 11-8 11 4 3z" fill="#0284c7"/>
  <rect x="74" y="208" width="4" height="28" rx="2" fill="#38bdf8" transform="rotate(12 76 222)"/>
  <text x="118" y="216" font-family="PingFang SC,Noto Sans SC,Microsoft YaHei,sans-serif" font-size="28" font-weight="800" fill="#0f172a">编程代码</text>
  <text x="118" y="248" font-family="PingFang SC,Noto Sans SC,Microsoft YaHei,sans-serif" font-size="16" font-weight="600" fill="#64748b">写码 · 排错</text>

  <!-- 4 复杂推理 -->
  <circle cx="346" cy="222" r="28" fill="#e0e7ff"/>
  <circle cx="346" cy="222" r="14" fill="none" stroke="#4f46e5" stroke-width="3.5"/>
  <circle cx="346" cy="222" r="5" fill="#4f46e5"/>
  <circle cx="330" cy="208" r="4" fill="#6366f1"/>
  <circle cx="362" cy="208" r="4" fill="#6366f1"/>
  <circle cx="330" cy="236" r="4" fill="#6366f1"/>
  <circle cx="362" cy="236" r="4" fill="#6366f1"/>
  <path d="M334 212l8 6M358 212l-8 6M334 232l8-6M358 232l-8-6" stroke="#818cf8" stroke-width="2"/>
  <text x="392" y="216" font-family="PingFang SC,Noto Sans SC,Microsoft YaHei,sans-serif" font-size="28" font-weight="800" fill="#0f172a">复杂推理</text>
  <text x="392" y="248" font-family="PingFang SC,Noto Sans SC,Microsoft YaHei,sans-serif" font-size="16" font-weight="600" fill="#64748b">数学 · 多步</text>
</svg>